<svg width="518" height="366" viewBox="0 0 518 366" fill="none" xmlns="http://www.w3.org/2000/svg">
<path d="M387.07 62.3423C419.987 62.3423 446.874 89.2099 446.874 122.103V200.737C446.874 233.63 419.987 260.498 387.07 260.498H134.869C101.951 260.498 75.0637 233.63 75.0637 200.737V122.103C75.0637 89.2099 101.951 62.3423 134.869 62.3423H387.07ZM134.869 64.8016C103.311 64.8016 77.5248 90.5681 77.5248 122.103V200.737L77.5296 201.476C77.9283 232.673 103.557 258.038 134.869 258.038H387.07C418.628 258.038 444.413 232.272 444.413 200.737V122.103C444.413 90.5681 418.628 64.8016 387.07 64.8016H134.869Z" fill="white"/>
<path d="M469.393 280.848C469.393 273.412 463.361 267.384 455.919 267.384H65.8345C58.3928 267.384 52.3598 273.412 52.3598 280.848V294.435C52.3598 301.872 58.3928 307.9 65.8345 307.9H455.919C463.361 307.9 469.393 301.872 469.393 294.435V280.848ZM471.854 294.435C471.854 303.23 464.72 310.359 455.919 310.359H65.8345C57.0335 310.359 49.8987 303.23 49.8987 294.435V280.848C49.8987 272.054 57.0335 264.924 65.8345 264.924H455.919C464.72 264.924 471.854 272.054 471.854 280.848V294.435Z" fill="white"/>
<path d="M109.457 101.076H45.8994V131.755H109.457V101.076Z" fill="white"/>
<path d="M109.457 145.219H45.8994V175.899H109.457V145.219Z" fill="white"/>
<path d="M109.457 189.425H45.8994V220.104H109.457V189.425Z" fill="white"/>
<path d="M472.1 101.076H408.542V131.755H472.1V101.076Z" fill="white"/>
<path d="M472.1 145.219H408.542V175.899H472.1V145.219Z" fill="white"/>
<path d="M472.1 189.425H408.542V220.104H472.1V189.425Z" fill="white"/>
<path d="M313.052 203.627V98.801H390.7V116.508H334.279V139.809H386.7V157.516H334.279V185.92H392.73V203.627H313.052ZM247.156 203.627V116.508H216.085V98.801H299.27V116.508H268.383V203.627H247.156ZM125.885 203.627V98.801H203.533V116.508H147.112V139.809H199.534V157.516H147.112V185.92H205.563V203.627H125.885Z" fill="white"/>
<path d="M390.453 245.865V232.093H393.284V243.529H400.236V245.865H390.453ZM383.747 240.332L381.84 235.167L379.994 240.332H383.809H383.747ZM388.854 245.865H385.839L384.608 242.729H379.009L377.84 245.865H374.887L380.301 231.97H383.255L388.792 245.865H388.854ZM362.335 231.97H365.166V239.471C365.166 240.639 365.166 241.438 365.289 241.807C365.412 242.36 365.719 242.852 366.15 243.16C366.581 243.529 367.196 243.652 367.996 243.652C368.796 243.652 369.35 243.467 369.78 243.16C370.211 242.852 370.396 242.422 370.519 241.93C370.58 241.438 370.642 240.639 370.642 239.594V231.909H373.472V239.225C373.472 240.885 373.41 242.053 373.226 242.791C373.103 243.467 372.795 244.082 372.364 244.512C371.934 245.004 371.441 245.373 370.765 245.619C370.088 245.926 369.227 246.049 368.119 246.049C367.012 246.049 365.781 245.926 365.104 245.619C364.427 245.312 363.874 244.943 363.504 244.451C363.135 243.959 362.828 243.467 362.705 242.914C362.52 242.115 362.458 240.946 362.458 239.409V231.97H362.335ZM351.137 234.306V243.529H353.229C354.029 243.529 354.583 243.529 354.891 243.406C355.321 243.283 355.752 243.098 355.998 242.852C356.306 242.606 356.552 242.115 356.736 241.5C356.921 240.885 357.044 240.024 357.044 238.979C357.044 237.934 356.921 237.073 356.736 236.52C356.552 235.966 356.306 235.475 355.937 235.167C355.567 234.86 355.137 234.614 354.645 234.491C354.275 234.429 353.475 234.368 352.368 234.368H351.137V234.306ZM348.307 231.97H353.414C354.583 231.97 355.444 232.032 356.06 232.216C356.86 232.462 357.598 232.892 358.152 233.507C358.705 234.122 359.198 234.86 359.505 235.782C359.813 236.643 359.936 237.749 359.936 239.04C359.936 240.332 359.813 241.192 359.505 241.992C359.136 242.975 358.644 243.836 358.029 244.451C357.536 244.943 356.86 245.312 356.06 245.558C355.444 245.742 354.645 245.865 353.599 245.865H348.307V231.97ZM341.662 240.332L339.755 235.167L337.909 240.332H341.724H341.662ZM346.831 245.865H343.816L342.585 242.729H336.986L335.817 245.865H332.864L338.278 231.97H341.232L346.769 245.865H346.831ZM327.019 245.865V234.306H322.896V231.97H333.91V234.306H329.787V245.865H326.957H327.019ZM310.222 241.377L312.929 241.131C313.113 242.053 313.421 242.729 313.913 243.16C314.406 243.59 315.082 243.775 315.944 243.775C316.805 243.775 317.543 243.59 317.974 243.221C318.405 242.852 318.651 242.422 318.651 241.869C318.651 241.315 318.528 241.254 318.343 241.008C318.159 240.762 317.79 240.578 317.359 240.393C317.051 240.27 316.313 240.086 315.144 239.778C313.667 239.409 312.621 238.918 312.006 238.426C311.145 237.688 310.714 236.704 310.714 235.598C310.714 234.491 310.898 234.245 311.329 233.63C311.76 233.015 312.314 232.523 313.052 232.216C313.79 231.909 314.713 231.724 315.759 231.724C317.482 231.724 318.835 232.093 319.697 232.892C320.558 233.692 321.051 234.675 321.112 235.966L318.282 236.089C318.159 235.352 317.913 234.86 317.543 234.552C317.174 234.245 316.559 234.06 315.759 234.06C314.959 234.06 314.344 234.245 313.852 234.552C313.544 234.798 313.421 235.044 313.421 235.413C313.421 235.782 313.544 236.028 313.852 236.274C314.221 236.581 315.082 236.889 316.436 237.196C317.79 237.503 318.774 237.872 319.451 238.18C320.128 238.549 320.62 238.979 320.989 239.594C321.358 240.209 321.543 240.946 321.543 241.807C321.543 242.668 321.297 243.344 320.866 244.02C320.435 244.697 319.82 245.25 319.02 245.558C318.22 245.926 317.174 246.049 316.005 246.049C314.221 246.049 312.929 245.619 311.944 244.82C311.022 244.02 310.468 242.852 310.283 241.254L310.222 241.377ZM297.978 245.865V231.97H308.253V234.306H300.808V237.38H307.761V239.717H300.808V243.467H308.56V245.803H297.978V245.865ZM286.657 240.332L284.749 235.167L282.903 240.332H286.718H286.657ZM291.825 245.865H288.81L287.58 242.729H281.981L280.812 245.865H277.858L283.273 231.97H286.226L291.763 245.865H291.825ZM274.167 240.7L276.874 241.561C276.443 243.098 275.766 244.205 274.782 244.943C273.797 245.68 272.567 246.049 271.09 246.049C269.614 246.049 267.706 245.435 266.537 244.143C265.368 242.914 264.753 241.131 264.753 238.979C264.753 236.827 265.368 234.86 266.537 233.569C267.706 232.277 269.306 231.663 271.275 231.663C273.244 231.663 274.351 232.155 275.397 233.2C276.012 233.815 276.505 234.675 276.812 235.782L274.043 236.458C273.859 235.72 273.551 235.167 272.998 234.737C272.444 234.306 271.829 234.122 271.09 234.122C270.352 234.122 269.244 234.491 268.568 235.229C267.952 235.966 267.583 237.135 267.583 238.795C267.583 240.455 267.891 241.807 268.506 242.545C269.121 243.283 269.983 243.652 270.967 243.652C271.952 243.652 272.382 243.406 272.874 242.914C273.428 242.422 273.797 241.684 274.043 240.7H274.167ZM259.831 245.865V231.97H262.661V245.865H259.831ZM245.864 245.865V231.97H248.571L254.293 241.254V231.97H256.877V245.865H254.047L248.387 236.766V245.865H245.802H245.864ZM240.757 240.7L243.464 241.561C243.034 243.098 242.357 244.205 241.372 244.943C240.388 245.68 239.157 246.049 237.681 246.049C236.204 246.049 234.297 245.435 233.128 244.143C231.959 242.914 231.343 241.131 231.343 238.979C231.343 236.827 231.959 234.86 233.128 233.569C234.297 232.277 235.896 231.663 237.865 231.663C239.834 231.663 240.942 232.155 241.988 233.2C242.603 233.815 243.095 234.675 243.403 235.782L240.634 236.458C240.449 235.72 240.142 235.167 239.588 234.737C239.034 234.306 238.419 234.122 237.681 234.122C236.942 234.122 235.835 234.491 235.158 235.229C234.543 235.966 234.174 237.135 234.174 238.795C234.174 240.455 234.481 241.807 235.097 242.545C235.712 243.283 236.573 243.652 237.558 243.652C238.542 243.652 238.973 243.406 239.465 242.914C240.019 242.422 240.388 241.684 240.634 240.7H240.757ZM222.73 230.679L224.022 227.851H226.975L224.329 230.679H222.668H222.73ZM218.915 245.865V231.97H229.19V234.306H221.745V237.38H228.698V239.717H221.745V243.467H229.498V245.803H218.915V245.865ZM210.178 245.865V234.306H206.056V231.97H217.069V234.306H212.947V245.865H210.116H210.178ZM195.781 240.332L193.873 235.167L192.027 240.332H195.842H195.781ZM200.887 245.865H197.872L196.642 242.729H191.043L189.874 245.865H186.921L192.335 231.97H195.288L200.826 245.865H200.887ZM176.584 245.865V232.093H179.414V243.529H186.367V245.865H176.584ZM163.725 238.918C163.725 240.516 164.094 241.684 164.832 242.483C165.571 243.283 166.493 243.713 167.601 243.713C168.708 243.713 169.631 243.283 170.37 242.483C171.108 241.684 171.477 240.455 171.477 238.856C171.477 237.258 171.108 236.089 170.431 235.29C169.754 234.491 168.831 234.122 167.662 234.122C166.493 234.122 165.571 234.491 164.832 235.29C164.094 236.089 163.786 237.258 163.786 238.856L163.725 238.918ZM160.833 238.979C160.833 237.565 161.017 236.397 161.448 235.413C161.756 234.675 162.187 234.06 162.74 233.507C163.294 232.954 163.909 232.523 164.525 232.277C165.386 231.909 166.37 231.724 167.539 231.724C169.57 231.724 171.231 232.339 172.462 233.63C173.692 234.921 174.307 236.643 174.307 238.918C174.307 241.192 173.692 242.914 172.462 244.205C171.231 245.496 169.631 246.111 167.539 246.111C165.447 246.111 163.848 245.496 162.617 244.205C161.387 242.914 160.771 241.192 160.771 238.979H160.833ZM156.28 240.7L158.987 241.561C158.556 243.098 157.88 244.205 156.895 244.943C155.911 245.68 154.68 246.049 153.204 246.049C151.727 246.049 149.819 245.435 148.65 244.143C147.481 242.914 146.866 241.131 146.866 238.979C146.866 236.827 147.481 234.86 148.65 233.569C149.819 232.277 151.419 231.663 153.388 231.663C155.357 231.663 156.464 232.155 157.51 233.2C158.126 233.815 158.618 234.675 158.926 235.782L156.157 236.458C155.972 235.72 155.665 235.167 155.111 234.737C154.557 234.306 153.942 234.122 153.204 234.122C152.465 234.122 151.358 234.491 150.681 235.229C150.066 235.966 149.696 237.135 149.696 238.795C149.696 240.455 150.004 241.807 150.619 242.545C151.235 243.283 152.096 243.652 153.08 243.652C154.065 243.652 154.496 243.406 154.988 242.914C155.542 242.422 155.911 241.684 156.157 240.7H156.28ZM133.761 241.377L136.468 241.131C136.653 242.053 136.96 242.729 137.452 243.16C137.945 243.59 138.621 243.775 139.483 243.775C140.344 243.775 141.083 243.59 141.513 243.221C141.944 242.852 142.19 242.422 142.19 241.869C142.19 241.315 142.067 241.254 141.882 241.008C141.698 240.762 141.329 240.578 140.898 240.393C140.59 240.27 139.852 240.086 138.683 239.778C137.206 239.409 136.16 238.918 135.545 238.426C134.684 237.688 134.253 236.704 134.253 235.598C134.253 234.491 134.438 234.245 134.868 233.63C135.299 233.015 135.853 232.523 136.591 232.216C137.329 231.909 138.252 231.724 139.298 231.724C141.021 231.724 142.375 232.093 143.236 232.892C144.097 233.692 144.59 234.675 144.59 235.966L141.759 236.089C141.636 235.352 141.39 234.86 141.021 234.552C140.652 234.245 140.037 234.06 139.237 234.06C138.437 234.06 137.822 234.245 137.329 234.552C137.022 234.798 136.899 235.044 136.899 235.413C136.899 235.782 137.022 236.028 137.329 236.274C137.699 236.581 138.56 236.889 139.914 237.196C141.267 237.503 142.252 237.872 142.928 238.18C143.605 238.549 144.097 238.979 144.467 239.594C144.836 240.209 145.02 240.946 145.02 241.807C145.02 242.668 144.774 243.344 144.344 244.02C143.913 244.697 143.298 245.25 142.498 245.558C141.698 245.926 140.652 246.049 139.483 246.049C137.699 246.049 136.407 245.619 135.422 244.82C134.499 244.02 133.945 242.852 133.761 241.254V241.377ZM121.517 245.865V231.97H131.792V234.306H124.347V237.38H131.3V239.717H124.347V243.467H132.1V245.803H121.517V245.865Z" fill="white"/>
<path d="M147.112 300.338V279.004H154.003C156.649 279.004 158.31 279.127 159.11 279.311C160.341 279.618 161.325 280.356 162.187 281.401C163.048 282.447 163.417 283.861 163.417 285.521C163.417 287.181 163.171 287.918 162.679 288.841C162.187 289.763 161.571 290.439 160.894 290.931C160.156 291.423 159.418 291.792 158.679 291.915C157.634 292.099 156.157 292.222 154.188 292.222H151.358V300.276H147.051L147.112 300.338ZM151.419 282.631V288.656H153.757C155.48 288.656 156.588 288.533 157.141 288.349C157.695 288.103 158.187 287.796 158.495 287.304C158.803 286.812 158.987 286.258 158.987 285.644C158.987 285.029 158.741 284.23 158.31 283.738C157.88 283.246 157.264 282.938 156.588 282.816C156.095 282.693 155.049 282.693 153.511 282.693H151.419V282.631Z" fill="white"/>
<path d="M166.124 289.824C166.124 287.673 166.432 285.828 167.109 284.353C167.601 283.246 168.278 282.324 169.078 281.401C169.939 280.541 170.862 279.926 171.846 279.496C173.2 278.942 174.677 278.635 176.461 278.635C179.599 278.635 182.121 279.618 184.029 281.586C185.936 283.553 186.859 286.258 186.859 289.701C186.859 293.144 185.936 295.85 184.029 297.756C182.183 299.723 179.66 300.645 176.522 300.645C173.385 300.645 170.8 299.661 168.955 297.756C167.109 295.85 166.124 293.144 166.124 289.763V289.824ZM170.554 289.701C170.554 292.099 171.108 293.944 172.215 295.173C173.323 296.403 174.738 297.018 176.461 297.018C178.184 297.018 179.599 296.403 180.706 295.173C181.814 293.944 182.368 292.099 182.368 289.64C182.368 287.181 181.814 285.398 180.768 284.168C179.722 282.938 178.245 282.385 176.522 282.385C174.8 282.385 173.323 283 172.215 284.23C171.108 285.459 170.616 287.304 170.616 289.701H170.554Z" fill="white"/>
<path d="M190.182 300.338V279.004H199.226C201.503 279.004 203.164 279.188 204.21 279.557C205.256 279.926 206.056 280.602 206.671 281.586C207.286 282.57 207.594 283.676 207.594 284.967C207.594 286.258 207.102 287.857 206.179 288.902C205.256 289.947 203.841 290.624 201.933 290.87C202.856 291.423 203.656 292.038 204.21 292.653C204.764 293.267 205.625 294.436 206.671 296.096L209.255 300.276H204.087L200.949 295.665C199.841 294.005 199.103 292.96 198.672 292.53C198.242 292.099 197.811 291.792 197.38 291.669C196.95 291.484 196.211 291.423 195.227 291.423H194.366V300.338H190.059H190.182ZM194.489 288.041H197.688C199.78 288.041 201.072 287.98 201.564 287.796C202.056 287.611 202.487 287.304 202.795 286.873C203.102 286.443 203.225 285.89 203.225 285.275C203.225 284.66 203.041 283.984 202.672 283.553C202.303 283.123 201.749 282.816 201.072 282.693C200.703 282.693 199.657 282.631 197.934 282.631H194.55V288.041H194.489Z" fill="white"/>
<path d="M216.454 300.338V282.631H210.116V279.004H227.037V282.631H220.699V300.338H216.392H216.454Z" fill="white"/>
<path d="M228.452 289.824C228.452 287.673 228.759 285.828 229.436 284.353C229.928 283.246 230.605 282.324 231.405 281.401C232.266 280.541 233.189 279.926 234.174 279.496C235.527 278.942 237.004 278.635 238.788 278.635C241.926 278.635 244.449 279.618 246.356 281.586C248.264 283.553 249.186 286.258 249.186 289.701C249.186 293.144 248.264 295.85 246.356 297.756C244.51 299.723 241.988 300.645 238.85 300.645C235.712 300.645 233.128 299.661 231.282 297.756C229.436 295.85 228.452 293.144 228.452 289.763V289.824ZM232.882 289.701C232.882 292.099 233.435 293.944 234.543 295.173C235.65 296.403 237.066 297.018 238.788 297.018C240.511 297.018 241.926 296.403 243.034 295.173C244.141 293.944 244.695 292.099 244.695 289.64C244.695 287.181 244.141 285.398 243.095 284.168C242.049 282.938 240.573 282.385 238.85 282.385C237.127 282.385 235.65 283 234.543 284.23C233.435 285.459 232.943 287.304 232.943 289.701H232.882Z" fill="white"/>
<path d="M260.754 279.065H268.629C270.413 279.065 271.767 279.188 272.69 279.496C273.921 279.864 275.028 280.541 275.889 281.463C276.751 282.385 277.489 283.553 277.92 284.906C278.412 286.259 278.597 287.919 278.597 289.947C278.597 291.976 278.351 293.206 277.92 294.497C277.366 296.034 276.628 297.325 275.643 298.247C274.905 298.985 273.859 299.539 272.628 299.969C271.706 300.276 270.413 300.399 268.814 300.399H260.692V279.065H260.754ZM265.061 282.631V296.772H268.26C269.491 296.772 270.352 296.71 270.844 296.587C271.521 296.403 272.136 296.096 272.567 295.727C272.998 295.296 273.428 294.62 273.674 293.698C273.982 292.714 274.105 291.423 274.105 289.824C274.105 288.226 273.982 286.935 273.674 286.013C273.367 285.09 272.998 284.414 272.444 283.922C271.89 283.43 271.275 283.123 270.475 282.939C269.86 282.816 268.691 282.754 266.968 282.754H265.061V282.631Z" fill="white"/>
<path d="M282.165 300.338V279.004H286.472V300.338H282.165Z" fill="white"/>
<path d="M300.439 292.53V288.964H309.73V297.448C308.807 298.309 307.515 299.108 305.792 299.723C304.069 300.338 302.346 300.707 300.562 300.707C298.778 300.707 296.378 300.215 294.717 299.293C293.056 298.37 291.825 297.018 290.964 295.296C290.102 293.575 289.733 291.669 289.733 289.64C289.733 287.611 290.225 285.459 291.148 283.738C292.071 282.016 293.425 280.664 295.209 279.741C296.563 279.004 298.285 278.696 300.316 278.696C302.346 278.696 305.054 279.25 306.53 280.356C308.007 281.463 308.991 283 309.422 284.967L305.115 285.767C304.807 284.721 304.254 283.922 303.392 283.307C302.592 282.693 301.546 282.385 300.316 282.385C298.409 282.385 296.932 283 295.824 284.168C294.717 285.336 294.163 287.119 294.163 289.456C294.163 291.792 294.717 293.882 295.824 295.173C296.932 296.464 298.409 297.079 300.254 297.079C302.1 297.079 302.039 296.895 302.962 296.526C303.884 296.157 304.623 295.727 305.3 295.235V292.53H300.377H300.439Z" fill="white"/>
<path d="M313.606 300.338V279.004H317.913V300.338H313.606Z" fill="white"/>
<path d="M326.773 300.338V282.631H320.435V279.004H337.355V282.631H331.018V300.338H326.711H326.773Z" fill="white"/>
<path d="M357.229 300.338H352.553L350.707 295.48H342.154L340.37 300.338H335.817L344.123 279.003H348.676L357.229 300.338ZM349.292 291.915L346.338 283.983L343.447 291.915H349.292Z" fill="white"/>
<path d="M359.628 300.338V279.188H363.935V296.71H374.641V300.276H359.628V300.338Z" fill="white"/>
</svg>
